<svg id="visual" viewBox="0 0 900 600" width="900" height="600"
     xmlns="http://www.w3.org/2000/svg"
     xmlns:xlink="http://www.w3.org/1999/xlink"
     version="1.1">
    <path d="M0 31L13.7 35C27.3 39 54.7 47 82 53C109.3 59 136.7 63 163.8 66C191 69 218 71 245.2 69C272.3 67 299.7 61 327 56C354.3 51 381.7 47 409 48C436.3 49 463.7 55 491 54C518.3 53 545.7 45 573 43C600.3 41 627.7 45 654.8 47C682 49 709 49 736.2 46C763.3 43 790.7 37 818 41C845.3 45 872.7 59 886.3 66L900 73L900 0L886.3 0C872.7 0 845.3 0 818 0C790.7 0 763.3 0 736.2 0C709 0 682 0 654.8 0C627.7 0 600.3 0 573 0C545.7 0 518.3 0 491 0C463.7 0 436.3 0 409 0C381.7 0 354.3 0 327 0C299.7 0 272.3 0 245.2 0C218 0 191 0 163.8 0C136.7 0 109.3 0 82 0C54.7 0 27.3 0 13.7 0L0 0Z"
          fill="#8d602f"></path>
    <path d="M0 109L13.7 110C27.3 111 54.7 113 82 116C109.3 119 136.7 123 163.8 130C191 137 218 147 245.2 142C272.3 137 299.7 117 327 117C354.3 117 381.7 137 409 142C436.3 147 463.7 137 491 138C518.3 139 545.7 151 573 150C600.3 149 627.7 135 654.8 123C682 111 709 101 736.2 103C763.3 105 790.7 119 818 127C845.3 135 872.7 137 886.3 138L900 139L900 71L886.3 64C872.7 57 845.3 43 818 39C790.7 35 763.3 41 736.2 44C709 47 682 47 654.8 45C627.7 43 600.3 39 573 41C545.7 43 518.3 51 491 52C463.7 53 436.3 47 409 46C381.7 45 354.3 49 327 54C299.7 59 272.3 65 245.2 67C218 69 191 67 163.8 64C136.7 61 109.3 57 82 51C54.7 45 27.3 37 13.7 33L0 29Z"
          fill="#9e6b34"></path>
    <path d="M0 277L13.7 278C27.3 279 54.7 281 82 267C109.3 253 136.7 223 163.8 239C191 255 218 317 245.2 329C272.3 341 299.7 303 327 295C354.3 287 381.7 309 409 326C436.3 343 463.7 355 491 351C518.3 347 545.7 327 573 327C600.3 327 627.7 347 654.8 349C682 351 709 335 736.2 310C763.3 285 790.7 251 818 239C845.3 227 872.7 237 886.3 242L900 247L900 137L886.3 136C872.7 135 845.3 133 818 125C790.7 117 763.3 103 736.2 101C709 99 682 109 654.8 121C627.7 133 600.3 147 573 148C545.7 149 518.3 137 491 136C463.7 135 436.3 145 409 140C381.7 135 354.3 115 327 115C299.7 115 272.3 135 245.2 140C218 145 191 135 163.8 128C136.7 121 109.3 117 82 114C54.7 111 27.3 109 13.7 108L0 107Z"
          fill="#af773a"></path>
    <path d="M0 373L13.7 370C27.3 367 54.7 361 82 342C109.3 323 136.7 291 163.8 301C191 311 218 363 245.2 379C272.3 395 299.7 375 327 379C354.3 383 381.7 411 409 424C436.3 437 463.7 435 491 422C518.3 409 545.7 385 573 383C600.3 381 627.7 401 654.8 409C682 417 709 413 736.2 386C763.3 359 790.7 309 818 297C845.3 285 872.7 311 886.3 324L900 337L900 245L886.3 240C872.7 235 845.3 225 818 237C790.7 249 763.3 283 736.2 308C709 333 682 349 654.8 347C627.7 345 600.3 325 573 325C545.7 325 518.3 345 491 349C463.7 353 436.3 341 409 324C381.7 307 354.3 285 327 293C299.7 301 272.3 339 245.2 327C218 315 191 253 163.8 237C136.7 221 109.3 251 82 265C54.7 279 27.3 277 13.7 276L0 275Z"
          fill="#c1833f"></path>
    <path d="M0 415L13.7 415C27.3 415 54.7 415 82 400C109.3 385 136.7 355 163.8 363C191 371 218 417 245.2 433C272.3 449 299.7 435 327 441C354.3 447 381.7 473 409 479C436.3 485 463.7 471 491 458C518.3 445 545.7 433 573 433C600.3 433 627.7 445 654.8 449C682 453 709 449 736.2 422C763.3 395 790.7 345 818 336C845.3 327 872.7 359 886.3 375L900 391L900 335L886.3 322C872.7 309 845.3 283 818 295C790.7 307 763.3 357 736.2 384C709 411 682 415 654.8 407C627.7 399 600.3 379 573 381C545.7 383 518.3 407 491 420C463.7 433 436.3 435 409 422C381.7 409 354.3 381 327 377C299.7 373 272.3 393 245.2 377C218 361 191 309 163.8 299C136.7 289 109.3 321 82 340C54.7 359 27.3 365 13.7 368L0 371Z"
          fill="#c98f52"></path>
    <path d="M0 565L13.7 557C27.3 549 54.7 533 82 529C109.3 525 136.7 533 163.8 540C191 547 218 553 245.2 549C272.3 545 299.7 531 327 532C354.3 533 381.7 549 409 555C436.3 561 463.7 557 491 556C518.3 555 545.7 557 573 560C600.3 563 627.7 567 654.8 565C682 563 709 555 736.2 546C763.3 537 790.7 527 818 524C845.3 521 872.7 525 886.3 527L900 529L900 389L886.3 373C872.7 357 845.3 325 818 334C790.7 343 763.3 393 736.2 420C709 447 682 451 654.8 447C627.7 443 600.3 431 573 431C545.7 431 518.3 443 491 456C463.7 469 436.3 483 409 477C381.7 471 354.3 445 327 439C299.7 433 272.3 447 245.2 431C218 415 191 369 163.8 361C136.7 353 109.3 383 82 398C54.7 413 27.3 413 13.7 413L0 413Z"
          fill="#d09c65"></path>
    <path d="M0 601L13.7 601C27.3 601 54.7 601 82 601C109.3 601 136.7 601 163.8 601C191 601 218 601 245.2 601C272.3 601 299.7 601 327 601C354.3 601 381.7 601 409 601C436.3 601 463.7 601 491 601C518.3 601 545.7 601 573 601C600.3 601 627.7 601 654.8 601C682 601 709 601 736.2 601C763.3 601 790.7 601 818 601C845.3 601 872.7 601 886.3 601L900 601L900 527L886.3 525C872.7 523 845.3 519 818 522C790.7 525 763.3 535 736.2 544C709 553 682 561 654.8 563C627.7 565 600.3 561 573 558C545.7 555 518.3 553 491 554C463.7 555 436.3 559 409 553C381.7 547 354.3 531 327 530C299.7 529 272.3 543 245.2 547C218 551 191 545 163.8 538C136.7 531 109.3 523 82 527C54.7 531 27.3 547 13.7 555L0 563Z"
          fill="#d7a878"></path>
</svg>
